<mxfile host="app.diagrams.net" modified="2023-04-19T23:13:20.404Z" agent="Mozilla/5.0 (Windows NT 10.0; Win64; x64) AppleWebKit/537.36 (KHTML, like Gecko) Chrome/111.0.0.0 Safari/537.36 OPR/97.0.0.0" etag="pviltVPs4YTMi59e-P2s" version="21.1.9" type="device">
  <diagram name="Page-1" id="13e1069c-82ec-6db2-03f1-153e76fe0fe0">
    <mxGraphModel dx="2349" dy="681" grid="1" gridSize="10" guides="1" tooltips="1" connect="1" arrows="1" fold="1" page="1" pageScale="1" pageWidth="1100" pageHeight="850" background="none" math="0" shadow="0">
      <root>
        <mxCell id="0" />
        <mxCell id="1" parent="0" />
        <mxCell id="7baba1c4bc27f4b0-2" value="ATCDataBase" style="shape=umlLifeline;perimeter=lifelinePerimeter;whiteSpace=wrap;html=1;container=1;collapsible=0;recursiveResize=0;outlineConnect=0;rounded=1;shadow=0;comic=0;labelBackgroundColor=none;strokeWidth=1;fontFamily=Verdana;fontSize=12;align=center;" parent="1" vertex="1">
          <mxGeometry x="240" y="80" width="100" height="390" as="geometry" />
        </mxCell>
        <mxCell id="7baba1c4bc27f4b0-10" value="" style="html=1;points=[];perimeter=orthogonalPerimeter;rounded=0;shadow=0;comic=0;labelBackgroundColor=none;strokeWidth=1;fontFamily=Verdana;fontSize=12;align=center;" parent="7baba1c4bc27f4b0-2" vertex="1">
          <mxGeometry x="45" y="100" width="10" height="290" as="geometry" />
        </mxCell>
        <mxCell id="7baba1c4bc27f4b0-8" value="GroundDisplay" style="shape=umlLifeline;perimeter=lifelinePerimeter;whiteSpace=wrap;html=1;container=1;collapsible=0;recursiveResize=0;outlineConnect=0;rounded=1;shadow=0;comic=0;labelBackgroundColor=none;strokeWidth=1;fontFamily=Verdana;fontSize=12;align=center;" parent="1" vertex="1">
          <mxGeometry x="100" y="80" width="100" height="390" as="geometry" />
        </mxCell>
        <mxCell id="7baba1c4bc27f4b0-9" value="" style="html=1;points=[];perimeter=orthogonalPerimeter;rounded=0;shadow=0;comic=0;labelBackgroundColor=none;strokeWidth=1;fontFamily=Verdana;fontSize=12;align=center;" parent="7baba1c4bc27f4b0-8" vertex="1">
          <mxGeometry x="45" y="100" width="10" height="290" as="geometry" />
        </mxCell>
        <mxCell id="uiPLLjNc3xHI1wC363Xw-1" value="Ground Services" style="shape=umlActor;verticalLabelPosition=bottom;verticalAlign=top;html=1;outlineConnect=0;" vertex="1" parent="1">
          <mxGeometry y="60" width="30" height="60" as="geometry" />
        </mxCell>
        <mxCell id="uiPLLjNc3xHI1wC363Xw-2" value="" style="html=1;points=[];perimeter=orthogonalPerimeter;outlineConnect=0;targetShapes=umlLifeline;portConstraint=eastwest;newEdgeStyle={&quot;edgeStyle&quot;:&quot;elbowEdgeStyle&quot;,&quot;elbow&quot;:&quot;vertical&quot;,&quot;curved&quot;:0,&quot;rounded&quot;:0};" vertex="1" parent="1">
          <mxGeometry x="10" y="180" width="10" height="290" as="geometry" />
        </mxCell>
        <mxCell id="uiPLLjNc3xHI1wC363Xw-3" value="" style="endArrow=none;dashed=1;html=1;rounded=0;" edge="1" parent="1" source="uiPLLjNc3xHI1wC363Xw-1" target="uiPLLjNc3xHI1wC363Xw-2">
          <mxGeometry width="50" height="50" relative="1" as="geometry">
            <mxPoint x="250" y="200" as="sourcePoint" />
            <mxPoint x="300" y="150" as="targetPoint" />
          </mxGeometry>
        </mxCell>
        <mxCell id="uiPLLjNc3xHI1wC363Xw-5" value="viewAssignments()" style="html=1;verticalAlign=bottom;endArrow=block;edgeStyle=elbowEdgeStyle;elbow=vertical;curved=0;rounded=0;" edge="1" parent="1" source="uiPLLjNc3xHI1wC363Xw-2">
          <mxGeometry width="80" relative="1" as="geometry">
            <mxPoint x="230" y="240" as="sourcePoint" />
            <mxPoint x="145" y="200" as="targetPoint" />
            <Array as="points">
              <mxPoint x="50" y="200" />
              <mxPoint x="140" y="240" />
            </Array>
          </mxGeometry>
        </mxCell>
        <mxCell id="uiPLLjNc3xHI1wC363Xw-6" value="reportAssignments" style="html=1;verticalAlign=bottom;endArrow=block;edgeStyle=elbowEdgeStyle;elbow=vertical;curved=0;rounded=0;entryX=-0.016;entryY=0.173;entryDx=0;entryDy=0;entryPerimeter=0;exitX=1.038;exitY=0.17;exitDx=0;exitDy=0;exitPerimeter=0;" edge="1" parent="1" source="7baba1c4bc27f4b0-9" target="7baba1c4bc27f4b0-10">
          <mxGeometry width="80" relative="1" as="geometry">
            <mxPoint x="160" y="230" as="sourcePoint" />
            <mxPoint x="280" y="230" as="targetPoint" />
            <Array as="points">
              <mxPoint x="170" y="230" />
            </Array>
          </mxGeometry>
        </mxCell>
        <mxCell id="uiPLLjNc3xHI1wC363Xw-7" value="assignmnetsDetails" style="html=1;verticalAlign=bottom;endArrow=open;dashed=1;endSize=8;edgeStyle=elbowEdgeStyle;elbow=vertical;curved=0;rounded=0;" edge="1" parent="1">
          <mxGeometry relative="1" as="geometry">
            <mxPoint x="287" y="360" as="sourcePoint" />
            <mxPoint x="154" y="360" as="targetPoint" />
            <Array as="points">
              <mxPoint x="170" y="360" />
            </Array>
          </mxGeometry>
        </mxCell>
        <mxCell id="uiPLLjNc3xHI1wC363Xw-8" value="alt" style="shape=umlFrame;whiteSpace=wrap;html=1;pointerEvents=0;" vertex="1" parent="1">
          <mxGeometry x="-10" y="310" width="460" height="150" as="geometry" />
        </mxCell>
        <mxCell id="uiPLLjNc3xHI1wC363Xw-9" value="Authorization" style="shape=umlLifeline;perimeter=lifelinePerimeter;whiteSpace=wrap;html=1;container=1;collapsible=0;recursiveResize=0;outlineConnect=0;rounded=1;shadow=0;comic=0;labelBackgroundColor=none;strokeWidth=1;fontFamily=Verdana;fontSize=12;align=center;" vertex="1" parent="1">
          <mxGeometry x="370" y="80" width="100" height="390" as="geometry" />
        </mxCell>
        <mxCell id="uiPLLjNc3xHI1wC363Xw-10" value="" style="html=1;points=[];perimeter=orthogonalPerimeter;rounded=0;shadow=0;comic=0;labelBackgroundColor=none;strokeWidth=1;fontFamily=Verdana;fontSize=12;align=center;" vertex="1" parent="uiPLLjNc3xHI1wC363Xw-9">
          <mxGeometry x="45" y="100" width="10" height="110" as="geometry" />
        </mxCell>
        <mxCell id="uiPLLjNc3xHI1wC363Xw-11" value="Authorization(U_id)" style="html=1;verticalAlign=bottom;endArrow=block;edgeStyle=elbowEdgeStyle;elbow=vertical;curved=0;rounded=0;exitX=0.921;exitY=0.195;exitDx=0;exitDy=0;exitPerimeter=0;entryX=-0.152;entryY=0.526;entryDx=0;entryDy=0;entryPerimeter=0;" edge="1" parent="1" source="7baba1c4bc27f4b0-10" target="uiPLLjNc3xHI1wC363Xw-10">
          <mxGeometry width="80" relative="1" as="geometry">
            <mxPoint x="200" y="260" as="sourcePoint" />
            <mxPoint x="280" y="260" as="targetPoint" />
          </mxGeometry>
        </mxCell>
        <mxCell id="uiPLLjNc3xHI1wC363Xw-12" value="Authorized" style="html=1;verticalAlign=bottom;endArrow=open;dashed=1;endSize=8;edgeStyle=elbowEdgeStyle;elbow=vertical;curved=0;rounded=0;exitX=0.018;exitY=0.736;exitDx=0;exitDy=0;exitPerimeter=0;entryX=0.752;entryY=0.276;entryDx=0;entryDy=0;entryPerimeter=0;" edge="1" parent="1" source="uiPLLjNc3xHI1wC363Xw-10" target="7baba1c4bc27f4b0-10">
          <mxGeometry relative="1" as="geometry">
            <mxPoint x="380" y="260" as="sourcePoint" />
            <mxPoint x="300" y="260" as="targetPoint" />
          </mxGeometry>
        </mxCell>
        <mxCell id="uiPLLjNc3xHI1wC363Xw-13" value="Error (No Access)" style="html=1;verticalAlign=bottom;endArrow=open;dashed=1;endSize=8;edgeStyle=elbowEdgeStyle;elbow=vertical;curved=0;rounded=0;exitX=0.121;exitY=0.827;exitDx=0;exitDy=0;exitPerimeter=0;entryX=1.028;entryY=0.825;entryDx=0;entryDy=0;entryPerimeter=0;" edge="1" parent="1" source="7baba1c4bc27f4b0-10" target="7baba1c4bc27f4b0-9">
          <mxGeometry relative="1" as="geometry">
            <mxPoint x="280" y="420" as="sourcePoint" />
            <mxPoint x="160" y="420" as="targetPoint" />
            <Array as="points">
              <mxPoint x="170" y="420" />
            </Array>
          </mxGeometry>
        </mxCell>
        <mxCell id="uiPLLjNc3xHI1wC363Xw-14" value="" style="endArrow=none;dashed=1;html=1;rounded=0;exitX=0.012;exitY=0.609;exitDx=0;exitDy=0;exitPerimeter=0;" edge="1" parent="1" source="uiPLLjNc3xHI1wC363Xw-8">
          <mxGeometry width="50" height="50" relative="1" as="geometry">
            <mxPoint x="270" y="350" as="sourcePoint" />
            <mxPoint x="449" y="401" as="targetPoint" />
          </mxGeometry>
        </mxCell>
        <mxCell id="uiPLLjNc3xHI1wC363Xw-15" value="Authorized" style="text;html=1;strokeColor=none;fillColor=none;align=center;verticalAlign=middle;whiteSpace=wrap;rounded=0;" vertex="1" parent="1">
          <mxGeometry x="40" y="350" width="60" height="30" as="geometry" />
        </mxCell>
        <mxCell id="uiPLLjNc3xHI1wC363Xw-16" value="Authorization Failed" style="text;html=1;strokeColor=none;fillColor=none;align=center;verticalAlign=middle;whiteSpace=wrap;rounded=0;" vertex="1" parent="1">
          <mxGeometry x="40" y="410" width="60" height="30" as="geometry" />
        </mxCell>
      </root>
    </mxGraphModel>
  </diagram>
</mxfile>
